<?xml version="1.0" encoding="UTF-8"?>
<svg width="2339px" height="700px" viewBox="0 0 2339 700" version="1.1" xmlns="http://www.w3.org/2000/svg" xmlns:xlink="http://www.w3.org/1999/xlink">
    <title>zee</title>
    <g id="Page-1" stroke="none" stroke-width="1" fill="none" fill-rule="evenodd">
        <g id="Artboard" transform="translate(-211, -175)" fill="#0068DA">
            <path d="M867,175 C891.300529,175 911,194.699471 911,219 L911,831 C911,855.300529 891.300529,875 867,875 L255,875 C230.699471,875 211,855.300529 211,831 L211,219 C211,194.699471 230.699471,175 255,175 L867,175 Z M750.171714,290 L634.673879,290 L364,758.807621 L364.341844,759.004985 L479.361433,759.001653 L750.171714,290 Z M758.009753,597 L642.510593,597 L549.015179,759 L664.495842,759 L758.009753,597 Z M449.187199,290 L394,385.60254 L509.461646,385.6 L564.679993,290 L449.187199,290 Z M1274.92658,645.018 L1484,645.018 L1484,759 L1112,759 L1112,677.988 L1310.71392,401.982 L1121.41772,401.982 L1121.41772,288 L1474.58228,288 L1474.58228,369.012 L1274.92658,645.018 Z M1646.16634,573.388258 C1662.49387,632.375631 1706.7666,661.869318 1778.98453,661.869318 C1825.45519,661.869318 1860.62218,646.181187 1884.48549,614.804924 L1982.45068,671.282197 C1935.98001,738.427399 1867.52998,772 1777.10058,772 C1699.23082,772 1636.74662,748.467803 1589.64797,701.403409 C1542.54932,654.339015 1519,595.037879 1519,523.5 C1519,452.589646 1542.23533,393.445391 1588.706,346.067235 C1635.17666,298.689078 1694.83495,275 1767.68085,275 C1836.75887,275 1893.74823,298.84596 1938.64894,346.537879 C1983.54965,394.229798 2006,453.217172 2006,523.5 C2006,539.188131 2004.43005,555.817551 2001.29014,573.388258 L1646.16634,573.388258 Z M1644.2824,479.25947 L1884.48549,479.25947 C1877.57769,447.255682 1863.2911,423.409722 1841.62573,407.721591 C1819.96035,392.03346 1795.31206,384.189394 1767.68085,384.189394 C1735.02579,384.189394 1708.02257,392.504104 1686.67118,409.133523 C1665.31979,425.762942 1651.1902,449.138258 1644.2824,479.25947 Z M2190.16634,573.388258 C2206.49387,632.375631 2250.7666,661.869318 2322.98453,661.869318 C2369.45519,661.869318 2404.62218,646.181187 2428.48549,614.804924 L2526.45068,671.282197 C2479.98001,738.427399 2411.52998,772 2321.10058,772 C2243.23082,772 2180.74662,748.467803 2133.64797,701.403409 C2086.54932,654.339015 2063,595.037879 2063,523.5 C2063,452.589646 2086.23533,393.445391 2132.706,346.067235 C2179.17666,298.689078 2238.83495,275 2311.68085,275 C2380.75887,275 2437.74823,298.84596 2482.64894,346.537879 C2527.54965,394.229798 2550,453.217172 2550,523.5 C2550,539.188131 2548.43005,555.817551 2545.29014,573.388258 L2190.16634,573.388258 Z M2188.2824,479.25947 L2428.48549,479.25947 C2421.57769,447.255682 2407.2911,423.409722 2385.62573,407.721591 C2363.96035,392.03346 2339.31206,384.189394 2311.68085,384.189394 C2279.02579,384.189394 2252.02257,392.504104 2230.67118,409.133523 C2209.31979,425.762942 2195.1902,449.138258 2188.2824,479.25947 Z" id="zee"></path>
        </g>
    </g>
</svg>