<?xml version="1.0" encoding="UTF-8"?>
<svg width="2339px" height="700px" viewBox="0 0 2339 700" version="1.1" xmlns="http://www.w3.org/2000/svg" xmlns:xlink="http://www.w3.org/1999/xlink">
    <title>zee copy</title>
    <g id="Page-1" stroke="none" stroke-width="1" fill="none" fill-rule="evenodd">
        <g id="Artboard" transform="translate(-1052, -1720)" fill="#8DBDFF">
            <path d="M1708,1720 C1732.30053,1720 1752,1739.69947 1752,1764 L1752,2376 C1752,2400.30053 1732.30053,2420 1708,2420 L1096,2420 C1071.69947,2420 1052,2400.30053 1052,2376 L1052,1764 C1052,1739.69947 1071.69947,1720 1096,1720 L1708,1720 Z M1591.17171,1835 L1475.67388,1835 L1205,2303.80762 L1205.34184,2304.00499 L1320.36143,2304.00165 L1591.17171,1835 Z M1599.00975,2142 L1483.51059,2142 L1390.01518,2304 L1505.49584,2304 L1599.00975,2142 Z M1290.1872,1835 L1235,1930.60254 L1350.46165,1930.6 L1405.67999,1835 L1290.1872,1835 Z M2115.92658,2190.018 L2325,2190.018 L2325,2304 L1953,2304 L1953,2222.988 L2151.71392,1946.982 L1962.41772,1946.982 L1962.41772,1833 L2315.58228,1833 L2315.58228,1914.012 L2115.92658,2190.018 Z M2487.16634,2118.38826 C2503.49387,2177.37563 2547.7666,2206.86932 2619.98453,2206.86932 C2666.45519,2206.86932 2701.62218,2191.18119 2725.48549,2159.80492 L2823.45068,2216.2822 C2776.98001,2283.4274 2708.52998,2317 2618.10058,2317 C2540.23082,2317 2477.74662,2293.4678 2430.64797,2246.40341 C2383.54932,2199.33902 2360,2140.03788 2360,2068.5 C2360,1997.58965 2383.23533,1938.44539 2429.706,1891.06723 C2476.17666,1843.68908 2535.83495,1820 2608.68085,1820 C2677.75887,1820 2734.74823,1843.84596 2779.64894,1891.53788 C2824.54965,1939.2298 2847,1998.21717 2847,2068.5 C2847,2084.18813 2845.43005,2100.81755 2842.29014,2118.38826 L2487.16634,2118.38826 Z M2485.2824,2024.25947 L2725.48549,2024.25947 C2718.57769,1992.25568 2704.2911,1968.40972 2682.62573,1952.72159 C2660.96035,1937.03346 2636.31206,1929.18939 2608.68085,1929.18939 C2576.02579,1929.18939 2549.02257,1937.5041 2527.67118,1954.13352 C2506.31979,1970.76294 2492.1902,1994.13826 2485.2824,2024.25947 Z M3031.16634,2118.38826 C3047.49387,2177.37563 3091.7666,2206.86932 3163.98453,2206.86932 C3210.45519,2206.86932 3245.62218,2191.18119 3269.48549,2159.80492 L3367.45068,2216.2822 C3320.98001,2283.4274 3252.52998,2317 3162.10058,2317 C3084.23082,2317 3021.74662,2293.4678 2974.64797,2246.40341 C2927.54932,2199.33902 2904,2140.03788 2904,2068.5 C2904,1997.58965 2927.23533,1938.44539 2973.706,1891.06723 C3020.17666,1843.68908 3079.83495,1820 3152.68085,1820 C3221.75887,1820 3278.74823,1843.84596 3323.64894,1891.53788 C3368.54965,1939.2298 3391,1998.21717 3391,2068.5 C3391,2084.18813 3389.43005,2100.81755 3386.29014,2118.38826 L3031.16634,2118.38826 Z M3029.2824,2024.25947 L3269.48549,2024.25947 C3262.57769,1992.25568 3248.2911,1968.40972 3226.62573,1952.72159 C3204.96035,1937.03346 3180.31206,1929.18939 3152.68085,1929.18939 C3120.02579,1929.18939 3093.02257,1937.5041 3071.67118,1954.13352 C3050.31979,1970.76294 3036.1902,1994.13826 3029.2824,2024.25947 Z" id="zee-copy"></path>
        </g>
    </g>
</svg>