<?xml version="1.0" encoding="UTF-8"?>
<svg xmlns="http://www.w3.org/2000/svg" xmlns:xlink="http://www.w3.org/1999/xlink" width="15px" height="14px" viewBox="0 0 15 14" version="1.1">
   <g stroke="none" stroke-width="1" fill="none" fill-rule="evenodd">
      <g transform="translate(-1599, -267)" fill="#FA6400" fill-rule="nonzero">
         <path d="M1600.98795,281 C1600.57631,281 1600.22239,280.909611 1599.9262,280.728832 C1599.63002,280.548054 1599.40161,280.304003 1599.24096,279.99668 C1599.08032,279.689356 1599,279.344586 1599,278.962369 C1599,278.600812 1599.09287,278.25475 1599.27861,277.924184 L1604.79819,268.02269 C1604.98394,267.686958 1605.22992,267.432577 1605.53614,267.259546 C1605.84237,267.086515 1606.16365,267 1606.5,267 C1606.83133,267 1607.1501,267.086515 1607.45633,267.259546 C1607.76255,267.432577 1608.01104,267.686958 1608.20181,268.02269 L1613.72139,277.924184 C1613.81175,278.094632 1613.88077,278.267663 1613.92846,278.443276 C1613.97615,278.61889 1614,278.79192 1614,278.962369 C1614,279.344586 1613.91968,279.689356 1613.75904,279.99668 C1613.59839,280.304003 1613.36998,280.548054 1613.0738,280.728832 C1612.77761,280.909611 1612.42369,281 1612.01205,281 L1600.98795,281 Z M1606.50753,276.033758 C1606.90412,276.033758 1607.10743,275.819406 1607.11747,275.390703 L1607.22289,271.571112 C1607.22289,271.364508 1607.15512,271.191478 1607.01958,271.05202 C1606.88404,270.912562 1606.70833,270.842833 1606.49247,270.842833 C1606.27661,270.842833 1606.10216,270.911271 1605.96913,271.048146 C1605.83609,271.185021 1605.77209,271.356761 1605.77711,271.563365 L1605.875,275.390703 C1605.88504,275.819406 1606.09588,276.033758 1606.50753,276.033758 Z M1606.50753,278.5285 C1606.72841,278.5285 1606.92294,278.452315 1607.09111,278.299945 C1607.25929,278.147574 1607.34337,277.952592 1607.34337,277.714997 C1607.34337,277.482568 1607.26054,277.288877 1607.09488,277.133924 C1606.92922,276.978971 1606.73343,276.901494 1606.50753,276.901494 C1606.27661,276.901494 1606.07831,276.980262 1605.91265,277.137797 C1605.74699,277.295333 1605.66416,277.487733 1605.66416,277.714997 C1605.66416,277.947427 1605.74699,278.141118 1605.91265,278.296071 C1606.07831,278.451024 1606.27661,278.5285 1606.50753,278.5285 Z" />
      </g>
   </g>
</svg>
